<svg version="1.1" id="_x38_" xmlns="http://www.w3.org/2000/svg" x="0" y="0" viewBox="0 0 128 128" xml:space="preserve"><style>.st1{fill:#56b4db}.st2{fill:#ffffa6}.st3{fill:#c8f0bd}.st4{fill:#e38baf}.st5{fill:#231815}.st6{fill:#90d1db}</style><path fill="#fff" d="M0 0h128v128H0z"/><path class="st1" d="M51 51h5v5h-5z"/><path class="st2" d="M72 72h5v5h-5z"/><path class="st1" d="M94 51h5v5h-5zM115 72h5v5h-5z"/><path class="st2" d="M30 30h5v5h-5z"/><path class="st3" d="M72 30h5v5h-5z"/><path class="st4" d="M115 30h5v5h-5z"/><path class="st1" d="M8 8h5v5H8z"/><path class="st5" d="M51 8h5v5h-5z"/><path class="st6" d="M94 8h5v5h-5z"/><path class="st3" d="M30 115h5v5h-5z"/><path class="st4" d="M72 115h5v5h-5z"/><path class="st5" d="M115 115h5v5h-5z"/><path class="st6" d="M8 94h5v5H8z"/><path class="st1" d="M51 94h5v5h-5z"/><path class="st3" d="M94 94h5v5h-5zM8 51h5v5H8z"/><path class="st4" d="M30 72h5v5h-5z"/></svg>