<?xml version="1.0" encoding="UTF-8" standalone="no"?>
<svg
   xmlns:dc="http://purl.org/dc/elements/1.1/"
   xmlns:cc="http://creativecommons.org/ns#"
   xmlns:rdf="http://www.w3.org/1999/02/22-rdf-syntax-ns#"
   xmlns:svg="http://www.w3.org/2000/svg"
   xmlns="http://www.w3.org/2000/svg"
   viewBox="0 0 666.66669 666.66669"
   height="666.66669"
   width="666.66669"
   xml:space="preserve"
   id="svg2"
   version="1.1"><metadata
     id="metadata8"><rdf:RDF><cc:Work
         rdf:about=""><dc:format>image/svg+xml</dc:format><dc:type
           rdf:resource="http://purl.org/dc/dcmitype/StillImage" /></cc:Work></rdf:RDF></metadata><defs
     id="defs6"><clipPath
       id="clipPath20"
       clipPathUnits="userSpaceOnUse"><path
         id="path18"
         d="M 0,500 H 500 V 0 H 0 Z" /></clipPath><clipPath
       id="clipPath36"
       clipPathUnits="userSpaceOnUse"><path
         id="path34"
         d="M 0,500 H 500 V 0 H 0 Z" /></clipPath></defs><g
     transform="matrix(1.3333333,0,0,-1.3333333,0,666.66667)"
     id="g10"><path
       id="path12"
       style="fill:#ead7cd;fill-opacity:1;fill-rule:nonzero;stroke:none"
       d="M 0,0 H 500 V 500 H 0 Z" /><g
       id="g14"><g
         clip-path="url(#clipPath20)"
         id="g16"><g
           transform="translate(420.8174,348.3705)"
           id="g22"><path
             id="path24"
             style="fill:#f9e9d8;fill-opacity:1;fill-rule:nonzero;stroke:none"
             d="m 0,0 c 0,-20.476 -16.599,-37.075 -37.075,-37.075 -20.476,0 -37.076,16.599 -37.076,37.075 0,20.476 16.6,37.075 37.076,37.075 C -16.599,37.075 0,20.476 0,0" /></g><g
           transform="translate(277.7125,241.5248)"
           id="g26"><path
             id="path28"
             style="fill:#f9e9d8;fill-opacity:1;fill-rule:nonzero;stroke:none"
             d="m 0,0 c 0,-48.4 -39.236,-87.637 -87.637,-87.637 -48.4,0 -87.636,39.237 -87.636,87.637 0,48.4 39.236,87.637 87.636,87.637 C -39.236,87.637 0,48.4 0,0" /></g></g></g><g
       id="g30"><g
         clip-path="url(#clipPath36)"
         id="g32"><g
           transform="translate(464.1889,57.0715)"
           id="g38"><path
             id="path40"
             style="fill:#d2b6aa;fill-opacity:1;fill-rule:nonzero;stroke:none"
             d="m 0,0 c 0,-7.233 -90.019,-13.096 -201.062,-13.096 -111.044,0 -201.063,5.863 -201.063,13.096 0,7.233 90.019,13.096 201.063,13.096 C -90.019,13.096 0,7.233 0,0" /></g><g
           transform="translate(171.4068,450.1509)"
           id="g42"><path
             id="path44"
             style="fill:#ffffff;fill-opacity:1;fill-rule:nonzero;stroke:none"
             d="M 0,0 4.344,-1.409 0,-2.817 C -1.771,-3.391 -3.159,-4.78 -3.733,-6.55 l -1.409,-4.344 -1.408,4.344 c -0.574,1.77 -1.962,3.159 -3.733,3.733 l -4.344,1.408 4.344,1.409 c 1.771,0.574 3.159,1.962 3.733,3.733 l 1.408,4.344 1.409,-4.344 C -3.159,1.962 -1.771,0.574 0,0" /></g><g
           transform="translate(437.7879,168.5354)"
           id="g46"><path
             id="path48"
             style="fill:#ffffff;fill-opacity:1;fill-rule:nonzero;stroke:none"
             d="M 0,0 4.344,-1.409 0,-2.817 C -1.771,-3.391 -3.159,-4.779 -3.733,-6.55 l -1.409,-4.344 -1.408,4.344 c -0.574,1.771 -1.963,3.159 -3.733,3.733 l -4.344,1.408 4.344,1.409 c 1.77,0.574 3.159,1.962 3.733,3.733 l 1.408,4.344 1.409,-4.344 C -3.159,1.962 -1.771,0.574 0,0" /></g><g
           transform="translate(60.9731,205.8446)"
           id="g50"><path
             id="path52"
             style="fill:#ffffff;fill-opacity:1;fill-rule:nonzero;stroke:none"
             d="M 0,0 4.344,-1.409 0,-2.817 C -1.771,-3.391 -3.159,-4.78 -3.733,-6.55 l -1.409,-4.344 -1.408,4.344 c -0.574,1.77 -1.962,3.159 -3.733,3.733 l -4.344,1.408 4.344,1.409 c 1.771,0.574 3.159,1.962 3.733,3.733 l 1.408,4.344 1.409,-4.344 C -3.159,1.962 -1.771,0.574 0,0" /></g><g
           transform="translate(256.0931,337.9756)"
           id="g54"><path
             id="path56"
             style="fill:#ffffff;fill-opacity:1;fill-rule:nonzero;stroke:none"
             d="M 0,0 2.522,-0.818 0,-1.636 c -1.028,-0.333 -1.834,-1.139 -2.168,-2.167 l -0.817,-2.523 -0.818,2.523 c -0.334,1.028 -1.14,1.834 -2.168,2.167 L -8.493,-0.818 -5.971,0 c 1.028,0.333 1.834,1.139 2.168,2.168 L -2.985,4.69 -2.168,2.168 C -1.834,1.139 -1.028,0.333 0,0" /></g><g
           transform="translate(102.0873,392.2582)"
           id="g58"><path
             id="path60"
             style="fill:#ffffff;fill-opacity:1;fill-rule:nonzero;stroke:none"
             d="M 0,0 2.522,-0.818 0,-1.636 c -1.028,-0.333 -1.834,-1.139 -2.168,-2.167 l -0.817,-2.523 -0.818,2.523 c -0.334,1.028 -1.14,1.834 -2.168,2.167 L -8.493,-0.818 -5.971,0 c 1.028,0.333 1.834,1.139 2.168,2.168 L -2.985,4.69 -2.168,2.168 C -1.834,1.139 -1.028,0.333 0,0" /></g><g
           transform="translate(70.3642,227.8013)"
           id="g62"><path
             id="path64"
             style="fill:#ffffff;fill-opacity:1;fill-rule:nonzero;stroke:none"
             d="M 0,0 2.522,-0.818 0,-1.636 c -1.028,-0.333 -1.834,-1.139 -2.168,-2.167 l -0.817,-2.523 -0.818,2.523 c -0.334,1.028 -1.14,1.834 -2.168,2.167 L -8.493,-0.818 -5.971,0 c 1.028,0.333 1.834,1.139 2.168,2.168 L -2.985,4.69 -2.168,2.168 C -1.834,1.139 -1.028,0.333 0,0" /></g><g
           transform="translate(396.5617,164.2633)"
           id="g66"><path
             id="path68"
             style="fill:#27314a;fill-opacity:1;fill-rule:nonzero;stroke:none"
             d="m 0,0 c 0,0 -8.831,-0.966 -12.28,-2.898 -3.449,-1.931 -5.105,-8.416 0.966,-8.416 H 8.555 c 4.139,0 2.483,9.244 0.276,11.728 z" /></g><g
           transform="translate(392.5157,178.2274)"
           id="g70"><path
             id="path72"
             style="fill:#f0887b;fill-opacity:1;fill-rule:nonzero;stroke:none"
             d="m 0,0 c 0,0 2.247,-12.06 2.871,-14.038 0.957,-3.031 9.453,-2.873 10.21,0.479 1.116,4.945 1.116,14.995 1.116,14.995 z" /></g><g
           transform="translate(390.9596,161.1154)"
           id="g74"><path
             id="path76"
             style="fill:#ffffff;fill-opacity:1;fill-rule:nonzero;stroke:none"
             d="M 0,0 C -0.193,0.349 -0.443,0.679 -0.736,0.95 -1.042,1.233 -1.382,1.484 -1.732,1.709 -2.1,1.946 -2.527,2.237 -2.982,2.207 -3.279,2.187 -3.591,1.897 -3.468,1.57 -3.415,1.432 -3.363,1.304 -3.266,1.191 -3.208,1.123 -3.14,1.059 -3.077,0.996 -3.017,0.937 -2.948,0.888 -2.881,0.836 -2.87,0.828 -2.846,0.812 -2.829,0.8 -2.837,0.806 -2.844,0.81 -2.865,0.824 -2.79,0.774 -2.72,0.71 -2.651,0.653 c 0.276,-0.227 0.539,-0.469 0.774,-0.738 0.049,-0.057 0.094,-0.119 0.144,-0.175 -0.172,0.193 0.042,-0.056 0.074,-0.097 0.086,-0.135 0.185,-0.26 0.264,-0.401 0.04,-0.073 0.077,-0.147 0.113,-0.222 0.01,-0.02 0.013,-0.027 0.015,-0.031 0.027,-0.066 0.052,-0.133 0.086,-0.195 0.034,-0.065 0.068,-0.129 0.103,-0.193 0.086,-0.156 0.219,-0.252 0.365,-0.343 0.304,-0.192 0.688,-0.052 0.874,0.229 C 0.475,-1.041 0.248,-0.449 0,0" /></g><g
           transform="translate(394.4574,161.446)"
           id="g78"><path
             id="path80"
             style="fill:#ffffff;fill-opacity:1;fill-rule:nonzero;stroke:none"
             d="M 0,0 C -0.068,0.221 -0.151,0.441 -0.267,0.642 -0.47,0.993 -0.722,1.324 -1.002,1.618 -1.563,2.206 -2.32,2.731 -3.146,2.81 -3.36,2.83 -3.571,2.654 -3.649,2.471 -3.727,2.287 -3.705,2.006 -3.535,1.87 -3.38,1.747 -3.224,1.634 -3.06,1.524 -3.022,1.499 -2.985,1.473 -2.949,1.447 -2.944,1.443 -2.937,1.44 -2.931,1.437 -2.874,1.406 -2.818,1.342 -2.77,1.302 -2.515,1.087 -2.284,0.861 -2.073,0.604 -2.049,0.572 -2.026,0.54 -2.004,0.507 -1.957,0.44 -1.913,0.371 -1.87,0.301 c 0.085,-0.141 0.163,-0.286 0.231,-0.435 0.069,-0.149 0.14,-0.296 0.211,-0.444 0.009,-0.022 0.009,-0.021 0.007,-0.016 0.012,-0.029 0.024,-0.057 0.036,-0.086 0.043,-0.079 0.108,-0.156 0.174,-0.217 0.057,-0.053 0.118,-0.102 0.175,-0.156 0.335,-0.314 0.853,-0.168 0.992,0.262 C 0.043,-0.525 0.085,-0.277 0,0" /></g><g
           transform="translate(404.0805,159.0734)"
           id="g82"><path
             id="path84"
             style="fill:#ffffff;fill-opacity:1;fill-rule:nonzero;stroke:none"
             d="m 0,0 c -0.092,0.327 -0.257,0.611 -0.497,0.852 -0.13,0.101 -0.26,0.201 -0.39,0.302 C -1.188,1.328 -1.513,1.416 -1.862,1.417 -2.127,1.427 -2.375,1.372 -2.605,1.251 -2.845,1.173 -3.052,1.04 -3.227,0.852 -3.415,0.677 -3.548,0.47 -3.626,0.231 c -0.121,-0.23 -0.176,-0.478 -0.166,-0.744 0.023,-0.171 0.046,-0.342 0.069,-0.513 0.091,-0.328 0.257,-0.611 0.496,-0.852 0.131,-0.101 0.261,-0.201 0.391,-0.302 0.301,-0.175 0.626,-0.263 0.974,-0.264 0.266,-0.01 0.514,0.046 0.744,0.167 0.239,0.077 0.447,0.21 0.621,0.399 0.189,0.175 0.322,0.382 0.4,0.621 0.121,0.23 0.176,0.478 0.166,0.744 C 0.046,-0.342 0.023,-0.171 0,0" /></g><g
           transform="translate(392.9413,175.9711)"
           id="g86"><path
             id="path88"
             style="fill:#cf4d4f;fill-opacity:1;fill-rule:nonzero;stroke:none"
             d="m 0,0 c 1.971,-0.878 7.049,-2.541 13.62,-2.201 0.151,3.245 0.152,5.893 0.152,5.893 L -0.426,2.256 c 0,0 0.169,-0.905 0.426,-2.256" /></g><g
           transform="translate(361.7862,164.2633)"
           id="g90"><path
             id="path92"
             style="fill:#27314a;fill-opacity:1;fill-rule:nonzero;stroke:none"
             d="m 0,0 c 0,0 -8.831,-0.966 -12.28,-2.898 -3.449,-1.931 -5.105,-8.416 0.966,-8.416 H 8.555 c 4.139,0 2.483,9.244 0.276,11.728 z" /></g><g
           transform="translate(357.7402,178.2274)"
           id="g94"><path
             id="path96"
             style="fill:#f0887b;fill-opacity:1;fill-rule:nonzero;stroke:none"
             d="m 0,0 c 0,0 2.247,-12.06 2.871,-14.038 0.957,-3.031 9.453,-2.873 10.21,0.479 1.116,4.945 1.116,14.995 1.116,14.995 z" /></g><g
           transform="translate(356.1841,161.1154)"
           id="g98"><path
             id="path100"
             style="fill:#ffffff;fill-opacity:1;fill-rule:nonzero;stroke:none"
             d="M 0,0 C -0.193,0.349 -0.443,0.679 -0.736,0.95 -1.042,1.233 -1.382,1.484 -1.732,1.709 -2.1,1.946 -2.527,2.237 -2.982,2.207 -3.279,2.187 -3.591,1.897 -3.468,1.57 -3.415,1.432 -3.363,1.304 -3.266,1.191 -3.208,1.123 -3.14,1.059 -3.077,0.996 -3.017,0.937 -2.948,0.888 -2.881,0.836 -2.87,0.828 -2.846,0.812 -2.829,0.8 -2.837,0.806 -2.844,0.81 -2.865,0.824 -2.789,0.774 -2.72,0.71 -2.651,0.653 c 0.276,-0.227 0.54,-0.469 0.774,-0.738 0.049,-0.057 0.094,-0.119 0.144,-0.175 -0.172,0.193 0.042,-0.056 0.075,-0.097 0.085,-0.135 0.184,-0.26 0.263,-0.401 0.04,-0.073 0.077,-0.147 0.113,-0.222 0.01,-0.02 0.013,-0.027 0.016,-0.031 0.026,-0.066 0.051,-0.133 0.085,-0.195 0.035,-0.065 0.068,-0.129 0.103,-0.193 0.087,-0.156 0.219,-0.252 0.365,-0.343 0.304,-0.192 0.688,-0.052 0.874,0.229 C 0.475,-1.041 0.249,-0.449 0,0" /></g><g
           transform="translate(359.6819,161.446)"
           id="g102"><path
             id="path104"
             style="fill:#ffffff;fill-opacity:1;fill-rule:nonzero;stroke:none"
             d="M 0,0 C -0.068,0.221 -0.151,0.441 -0.266,0.642 -0.469,0.993 -0.722,1.324 -1.002,1.618 -1.563,2.206 -2.32,2.731 -3.146,2.81 -3.36,2.83 -3.571,2.654 -3.649,2.471 -3.727,2.287 -3.705,2.006 -3.535,1.87 -3.38,1.747 -3.224,1.634 -3.06,1.524 -3.022,1.499 -2.985,1.473 -2.949,1.447 -2.944,1.443 -2.937,1.44 -2.931,1.437 -2.874,1.406 -2.818,1.342 -2.77,1.302 -2.515,1.087 -2.284,0.861 -2.073,0.604 -2.049,0.572 -2.026,0.54 -2.004,0.507 -1.957,0.44 -1.913,0.371 -1.87,0.301 c 0.085,-0.141 0.163,-0.286 0.231,-0.435 0.069,-0.149 0.14,-0.296 0.211,-0.444 0.009,-0.022 0.009,-0.021 0.007,-0.016 0.012,-0.029 0.025,-0.057 0.037,-0.086 0.042,-0.079 0.107,-0.156 0.173,-0.217 0.057,-0.053 0.118,-0.102 0.176,-0.156 0.334,-0.314 0.852,-0.168 0.991,0.262 C 0.043,-0.525 0.086,-0.277 0,0" /></g><g
           transform="translate(369.305,159.0734)"
           id="g106"><path
             id="path108"
             style="fill:#ffffff;fill-opacity:1;fill-rule:nonzero;stroke:none"
             d="m 0,0 c -0.092,0.327 -0.257,0.611 -0.497,0.852 -0.13,0.101 -0.26,0.201 -0.39,0.302 C -1.188,1.328 -1.513,1.416 -1.862,1.417 -2.127,1.427 -2.375,1.372 -2.605,1.251 -2.845,1.173 -3.052,1.04 -3.227,0.852 -3.415,0.677 -3.548,0.47 -3.626,0.231 c -0.121,-0.23 -0.176,-0.478 -0.166,-0.744 0.023,-0.171 0.046,-0.342 0.069,-0.513 0.091,-0.328 0.257,-0.611 0.496,-0.852 0.131,-0.101 0.261,-0.201 0.391,-0.302 0.301,-0.175 0.626,-0.263 0.974,-0.264 0.266,-0.01 0.514,0.046 0.744,0.167 0.239,0.077 0.447,0.21 0.621,0.399 0.189,0.175 0.322,0.382 0.4,0.621 0.12,0.23 0.176,0.478 0.166,0.744 C 0.046,-0.342 0.023,-0.171 0,0" /></g><g
           transform="translate(358.1658,175.9711)"
           id="g110"><path
             id="path112"
             style="fill:#cf4d4f;fill-opacity:1;fill-rule:nonzero;stroke:none"
             d="m 0,0 c 1.971,-0.878 7.049,-2.541 13.62,-2.201 0.151,3.245 0.152,5.893 0.152,5.893 L -0.426,2.256 c 0,0 0.169,-0.905 0.426,-2.256" /></g><g
           transform="translate(400.9703,274.2588)"
           id="g114"><path
             id="path116"
             style="fill:#3b6e57;fill-opacity:1;fill-rule:nonzero;stroke:none"
             d="M 0,0 C 1.117,-3.669 4.626,-13.24 4.945,-24.407 5.264,-35.573 6.54,-89.332 7.019,-97.627 H -10.05 c 0,0 -11.326,41.157 -11.964,72.263 0,0 -4.108,-24.868 -5.583,-35.732 -1.755,-12.922 0.638,-36.69 0.638,-36.69 h -18.185 c 0,0 -5.903,39.561 -3.191,60.299 2.712,20.737 7.338,38.923 7.338,38.923 z" /></g><g
           transform="translate(402.2432,270.2239)"
           id="g118"><path
             id="path120"
             style="fill:#27314a;fill-opacity:1;fill-rule:nonzero;stroke:none"
             d="m 0,0 c -0.521,1.696 -0.98,3.073 -1.273,4.035 l -20.549,0.719 -4.017,-1.198 0.08,-4.068 c 0,0 12.122,-3.461 25.759,0.512" /></g><g
           transform="translate(349.5249,311.0881)"
           id="g122"><path
             id="path124"
             style="fill:#27314a;fill-opacity:1;fill-rule:nonzero;stroke:none"
             d="m 0,0 c 0,0 5.145,-2.513 10.588,-2.094 5.444,0.419 -0.359,4.188 -0.359,4.188 z" /></g><g
           transform="translate(361.808,310.6294)"
           id="g126"><path
             id="path128"
             style="fill:#f0887b;fill-opacity:1;fill-rule:nonzero;stroke:none"
             d="m 0,0 c 0.42,0.116 -1.516,-7.258 -3.19,-10.847 -1.043,-2.235 -9.093,-12.842 -9.093,-12.842 l -7.099,4.307 c 0,0 7.099,12.004 7.697,13.44 0.598,1.436 2.034,11.844 2.034,11.844 l 7.418,1.077 z" /></g><g
           transform="translate(352.157,316.5317)"
           id="g130"><path
             id="path132"
             style="fill:#cf4d4f;fill-opacity:1;fill-rule:nonzero;stroke:none"
             d="m 0,0 c 0,0 -0.397,-2.876 -0.86,-5.813 1.383,-0.294 6.795,-1.519 9.933,-3.276 0.496,1.863 0.761,3.237 0.578,3.187 L 7.723,0.124 5.78,0.839 Z" /></g><g
           transform="translate(389.545,337.5357)"
           id="g134"><path
             id="path136"
             style="fill:#5e7abb;fill-opacity:1;fill-rule:nonzero;stroke:none"
             d="m 0,0 c 5.682,-0.785 10.229,-2.579 12.861,-5.331 2.632,-2.752 3.35,-28.355 2.153,-31.825 l -1.355,0.758 -3.071,-2.911 c 0,0 -0.12,-15.553 2.393,-24.287 0,0 -19.861,-9.093 -43.549,1.675 0,0 4.665,8.016 3.349,21.535 -0.209,2.147 -2.512,7.777 -2.392,13.161 0,0 -6.94,1.316 -10.409,0.777 0,0 3.111,16.092 5.982,19.801 2.871,3.709 9.212,5.623 11.605,6.221 2.393,0.598 6.82,-0.837 6.82,-0.837 l 9.69,0.478 z" /></g><g
           transform="translate(402.0303,275.8994)"
           id="g138"><path
             id="path140"
             style="fill:#27314a;fill-opacity:1;fill-rule:nonzero;stroke:none"
             d="m 0,0 c -0.064,0.283 -0.125,0.571 -0.185,0.863 -1.947,-0.642 -3.906,-1.234 -5.909,-1.711 -2.967,-0.705 -5.97,-1.202 -9.006,-1.493 -6.077,-0.583 -12.23,-0.379 -18.287,0.332 -2.948,0.346 -5.873,0.833 -8.794,1.348 0.778,-0.339 1.551,-0.657 2.32,-0.955 4.717,-1.023 9.57,-1.545 14.365,-1.737 6.195,-0.247 12.447,0.222 18.524,1.459 C -4.623,-1.416 -2.276,-0.796 0,0" /></g><g
           transform="translate(332.3764,290.6894)"
           id="g142"><path
             id="path144"
             style="fill:#27314a;fill-opacity:1;fill-rule:nonzero;stroke:none"
             d="m 0,0 42.793,-35.37 c 2.301,-1.902 5.689,-1.668 7.707,0.532 l 0.726,0.791 c 2.037,2.221 1.956,5.655 -0.186,7.777 L 11.645,12.762 Z" /></g><g
           transform="translate(384.0827,371.0928)"
           id="g146"><path
             id="path148"
             style="fill:#6d263b;fill-opacity:1;fill-rule:nonzero;stroke:none"
             d="m 0,0 c 0,0 1.113,7.459 9.932,7.886 8.819,0.427 12.334,-6.233 13.061,-12.838 0.727,-6.605 1.616,-10.07 3.737,-11.417 0,0 -8.551,-7.275 -15.478,1.284 C 4.326,-6.526 0,0 0,0" /></g><g
           transform="translate(390.2901,378.2695)"
           id="g150"><path
             id="path152"
             style="fill:#27314a;fill-opacity:1;fill-rule:nonzero;stroke:none"
             d="m 0,0 c -5.424,-1.954 -6.207,-7.177 -6.207,-7.177 0,0 4.154,-6.262 10.829,-14.557 1.206,0.196 2.142,1.283 2.617,3.663 C 9.271,-7.898 2.678,-1.95 0,0" /></g><g
           transform="translate(369.9468,342.2006)"
           id="g154"><path
             id="path156"
             style="fill:#6d263b;fill-opacity:1;fill-rule:nonzero;stroke:none"
             d="M 0,0 C -5.534,3.829 -8.145,3.128 -9.255,17.561 -10.366,31.995 12.254,44.135 23.183,30.287 30.055,21.579 30.658,5.959 19.596,2.146 7.208,-2.123 0,0 0,0" /></g><g
           transform="translate(351.16,321.5167)"
           id="g158"><path
             id="path160"
             style="fill:#27314a;fill-opacity:1;fill-rule:nonzero;stroke:none"
             d="m 0,0 c 0,-20.946 -16.98,-37.926 -37.926,-37.926 -20.946,0 -37.926,16.98 -37.926,37.926 0,20.946 16.98,37.926 37.926,37.926 C -16.98,37.926 0,20.946 0,0" /></g><g
           transform="translate(341.8159,321.5167)"
           id="g162"><path
             id="path164"
             style="fill:#b1d0e8;fill-opacity:1;fill-rule:nonzero;stroke:none"
             d="m 0,0 c 0,-15.785 -12.797,-28.582 -28.582,-28.582 -15.785,0 -28.582,12.797 -28.582,28.582 0,15.785 12.797,28.582 28.582,28.582 C -12.797,28.582 0,15.785 0,0" /></g><g
           transform="translate(371.5387,343.2514)"
           id="g166"><path
             id="path168"
             style="fill:#f0887b;fill-opacity:1;fill-rule:nonzero;stroke:none"
             d="m 0,0 c 0,0 -0.08,-2.074 -0.479,-3.749 -0.398,-1.675 -3.948,-2.393 -3.948,-2.393 0,0 2.433,-5.982 8.016,-7.098 l 1.914,-8.056 2.712,7.737 c 0,0 6.521,0.984 9.791,7.843 0,0 -1.256,0.133 -2.931,0.851 -1.675,0.718 -1.596,5.583 -1.596,5.583 z" /></g><g
           transform="translate(337.3216,281.2777)"
           id="g170"><path
             id="path172"
             style="fill:#f0887b;fill-opacity:1;fill-rule:nonzero;stroke:none"
             d="M 0,0 C -1.046,3.746 0,6.221 0.877,7.418 1.755,8.614 2.473,7.099 2.552,6.62 2.632,6.141 2.393,2.951 2.393,2.951 c 0,0 0.638,1.994 1.914,4.227 1.276,2.234 2.712,2.951 3.589,1.276 0,0 1.276,0.718 2.074,-1.196 0,0 1.675,-0.319 1.356,-2.552 0,0 1.117,-0.957 0.718,-2.552 C 11.645,0.558 9.89,-1.276 9.172,-3.749 8.454,-6.221 1.42,-5.084 0,0" /></g><g
           transform="translate(404.5595,300.3802)"
           id="g174"><path
             id="path176"
             style="fill:#27314a;fill-opacity:1;fill-rule:nonzero;stroke:none"
             d="m 0,0 c -2.453,-0.658 -13.101,1.974 -14.477,2.752 0,0 0.748,0.748 1.795,0.957 l 6.461,-1.645 2.632,-0.628 2.233,-0.678 z" /></g><g
           transform="translate(391.8776,304.0891)"
           id="g178"><path
             id="path180"
             style="fill:#f0887b;fill-opacity:1;fill-rule:nonzero;stroke:none"
             d="m 0,0 c 0,0 -1.117,-4.108 -2.871,-6.58 -1.755,-2.473 -18.106,-19.183 -18.983,-19.9 -0.878,-0.718 -6.62,-0.479 -8.295,-1.516 -1.675,-1.037 -0.319,-2.153 0.957,-2.074 1.276,0.08 3.429,-0.239 3.429,-0.239 0,0 -1.355,-2.393 -2.153,-3.19 -0.798,-0.798 -3.191,-1.994 -4.068,-2.234 -0.877,-0.239 -0.718,-2.233 0.319,-2.153 0,0 -1.037,-1.835 1.117,-2.553 0,0 -0.479,-1.196 1.595,-1.355 0,0 0.08,-0.559 2.313,-0.399 2.233,0.159 5.025,3.031 6.221,4.227 1.197,1.196 3.271,4.945 3.829,5.344 0.558,0.399 18.903,15.474 21.695,18.664 2.791,3.19 6.221,11.007 6.221,11.007 0,0 -5.823,4.068 -11.326,2.951" /></g><g
           transform="translate(387.5624,338.025)"
           id="g182"><path
             id="path184"
             style="fill:#cf4d4f;fill-opacity:1;fill-rule:nonzero;stroke:none"
             d="M 0,0 C -0.297,0.101 -0.611,0.216 -0.949,0.361 -2.624,1.079 -2.544,5.944 -2.544,5.944 L -9.787,5.559 -14.212,4.852 -16.178,3.38 C -16.208,3.13 -16.245,2.869 -16.287,2.604 -14.794,1.249 -9.156,-3.009 0,0" /></g><g
           transform="translate(390.5962,358.2446)"
           id="g186"><path
             id="path188"
             style="fill:#f0887b;fill-opacity:1;fill-rule:nonzero;stroke:none"
             d="M 0,0 C 0,0 3.384,2.005 5.513,-1.374 7.641,-4.752 4.171,-7.628 1.32,-7.627 c 0,0 -2.691,-11.924 -12.995,-12.368 -10.255,-0.442 -14.668,10.06 -15.498,17.832 0,0 4.615,2.182 5.127,4.683 0.512,2.501 6.821,2.773 9.969,7.37 0,0 2.43,-4.605 5.415,-4.848 C -3.677,4.799 -0.693,1.705 0,0" /></g><g
           transform="translate(383.934,363.2868)"
           id="g190"><path
             id="path192"
             style="fill:#cf4d4f;fill-opacity:1;fill-rule:nonzero;stroke:none"
             d="m 0,0 c -2.985,0.243 -5.414,4.848 -5.414,4.848 -3.149,-4.597 -9.458,-4.869 -9.97,-7.37 -0.512,-2.501 -5.127,-4.683 -5.127,-4.683 0.028,-0.261 0.06,-0.525 0.096,-0.791 1.794,0.414 5.028,2.691 5.777,4.401 0.837,1.914 5.952,2.782 8.943,6.251 0,0 2.213,-3.409 5.443,-3.768 2.519,-0.28 5.123,-2.335 6.495,-3.149 C 5.136,-2.531 2.57,-0.209 0,0" /></g><g
           transform="translate(394.7563,356.3084)"
           id="g194"><path
             id="path196"
             style="fill:#cf4d4f;fill-opacity:1;fill-rule:nonzero;stroke:none"
             d="m 0,0 c 0.109,0.268 -0.144,0.552 -0.33,0.71 -0.222,0.187 -0.458,0.337 -0.737,0.423 -0.51,0.156 -1.119,0.056 -1.48,-0.359 -0.332,-0.382 -0.396,-0.911 -0.374,-1.4 0.029,-0.617 0.109,-1.237 0.207,-1.846 0.054,-0.338 0.568,-0.462 0.782,-0.206 0.207,0.246 0.69,0.57 0.969,0.219 0.119,-0.149 0.045,-0.378 -0.032,-0.526 -0.066,-0.127 -0.163,-0.235 -0.232,-0.361 -0.076,-0.138 -0.122,-0.288 -0.157,-0.441 -0.048,-0.207 0.137,-0.425 0.357,-0.357 0.481,0.15 0.777,0.504 0.938,0.976 0.155,0.453 0.08,0.948 -0.231,1.315 -0.409,0.482 -1.028,0.54 -1.563,0.333 -0.025,0.238 -0.064,0.474 -0.073,0.713 -0.013,0.297 -0.051,0.699 0.15,0.934 C -1.338,0.675 -0.323,-0.791 0,0" /></g><g
           transform="translate(391.8776,304.0891)"
           id="g198"><path
             id="path200"
             style="fill:#cf4d4f;fill-opacity:1;fill-rule:nonzero;stroke:none"
             d="m 0,0 c 0,0 -0.065,-0.236 -0.184,-0.621 0.91,-0.289 6.451,-1.212 10.642,-4.214 0.537,1.131 0.868,1.884 0.868,1.884 0,0 -5.823,4.068 -11.326,2.951" /></g><g
           transform="translate(367.5931,270.5312)"
           id="g202"><path
             id="path204"
             style="fill:#cf4d4f;fill-opacity:1;fill-rule:nonzero;stroke:none"
             d="m 0,0 c -0.314,-0.146 -0.537,-0.499 -0.758,-0.757 -0.251,-0.292 -0.501,-0.587 -0.772,-0.862 -0.503,-0.508 -1.07,-0.955 -1.683,-1.323 -1.211,-0.729 -2.542,-1.249 -3.944,-1.454 -0.15,-0.022 -0.116,-0.276 0.036,-0.266 1.464,0.099 2.906,0.514 4.147,1.311 0.602,0.387 1.168,0.832 1.674,1.338 0.301,0.3 0.583,0.616 0.863,0.935 0.241,0.274 0.558,0.538 0.693,0.881 C 0.317,-0.04 0.122,0.057 0,0" /></g><g
           transform="translate(369.2126,267.8907)"
           id="g206"><path
             id="path208"
             style="fill:#cf4d4f;fill-opacity:1;fill-rule:nonzero;stroke:none"
             d="m 0,0 c -0.564,-0.478 -1.079,-0.999 -1.673,-1.445 -0.588,-0.441 -1.218,-0.829 -1.869,-1.172 -1.304,-0.69 -2.724,-1.157 -4.164,-1.468 -0.192,-0.041 -0.107,-0.32 0.081,-0.291 1.499,0.238 2.926,0.738 4.281,1.421 0.676,0.341 1.325,0.734 1.948,1.164 0.611,0.421 1.257,0.88 1.757,1.43 C 0.585,-0.115 0.249,0.211 0,0" /></g><g
           transform="translate(369.2317,265.6078)"
           id="g210"><path
             id="path212"
             style="fill:#cf4d4f;fill-opacity:1;fill-rule:nonzero;stroke:none"
             d="m 0,0 c -0.486,-0.157 -0.877,-0.576 -1.293,-0.865 -0.449,-0.313 -0.915,-0.602 -1.398,-0.859 -0.482,-0.257 -0.979,-0.487 -1.488,-0.686 -0.524,-0.204 -1.079,-0.347 -1.596,-0.562 -0.151,-0.062 -0.157,-0.344 0.043,-0.319 0.546,0.071 1.102,0.277 1.612,0.478 0.525,0.207 1.039,0.442 1.538,0.706 0.498,0.265 0.982,0.554 1.448,0.871 0.43,0.293 1.004,0.618 1.243,1.094 C 0.145,-0.071 0.085,0.028 0,0" /></g><g
           transform="translate(344.9368,289.5961)"
           id="g214"><path
             id="path216"
             style="fill:#cf4d4f;fill-opacity:1;fill-rule:nonzero;stroke:none"
             d="m 0,0 c -0.249,0.007 -0.42,-0.244 -0.567,-0.419 -0.188,-0.224 -0.357,-0.468 -0.524,-0.708 -0.357,-0.517 -0.672,-1.061 -0.951,-1.623 -0.266,-0.537 -0.507,-1.087 -0.714,-1.649 -0.105,-0.287 -0.201,-0.577 -0.288,-0.87 -0.075,-0.255 -0.232,-0.609 -0.128,-0.867 0.059,-0.147 0.223,-0.204 0.349,-0.092 0.19,0.17 0.213,0.478 0.278,0.716 0.079,0.295 0.168,0.587 0.267,0.876 0.196,0.573 0.428,1.132 0.706,1.67 0.264,0.512 0.562,1.008 0.881,1.488 0.169,0.254 0.354,0.496 0.531,0.745 0.135,0.19 0.333,0.394 0.283,0.639 C 0.112,-0.038 0.053,-0.001 0,0" /></g><g
           transform="translate(347.1171,288.2437)"
           id="g218"><path
             id="path220"
             style="fill:#cf4d4f;fill-opacity:1;fill-rule:nonzero;stroke:none"
             d="m 0,0 c -0.25,0.001 -0.417,-0.2 -0.584,-0.365 -0.198,-0.197 -0.38,-0.408 -0.551,-0.628 -0.336,-0.435 -0.62,-0.907 -0.858,-1.403 -0.253,-0.527 -0.47,-1.079 -0.628,-1.641 -0.086,-0.304 -0.162,-0.61 -0.234,-0.918 -0.069,-0.297 -0.172,-0.614 -0.172,-0.92 0,-0.142 0.205,-0.207 0.274,-0.075 0.127,0.244 0.18,0.524 0.258,0.787 0.08,0.269 0.163,0.537 0.253,0.803 0.191,0.568 0.389,1.136 0.647,1.678 0.221,0.462 0.48,0.908 0.786,1.32 0.153,0.208 0.321,0.404 0.5,0.59 0.164,0.169 0.42,0.323 0.466,0.566 C 0.176,-0.103 0.112,-0.001 0,0" /></g><g
           transform="translate(348.4513,285.8336)"
           id="g222"><path
             id="path224"
             style="fill:#cf4d4f;fill-opacity:1;fill-rule:nonzero;stroke:none"
             d="m 0,0 c -0.232,0.023 -0.385,-0.164 -0.532,-0.318 -0.167,-0.175 -0.314,-0.371 -0.451,-0.57 -0.298,-0.432 -0.537,-0.902 -0.744,-1.384 -0.2,-0.467 -0.371,-0.945 -0.527,-1.429 -0.143,-0.446 -0.445,-1.057 -0.237,-1.519 0.067,-0.148 0.284,-0.063 0.288,0.078 0.009,0.273 0.028,0.499 0.112,0.761 0.076,0.233 0.155,0.466 0.235,0.698 0.159,0.462 0.324,0.922 0.524,1.368 0.187,0.417 0.402,0.822 0.659,1.199 0.141,0.207 0.297,0.403 0.461,0.592 0.125,0.145 0.266,0.264 0.266,0.47 C 0.054,-0.023 0.029,-0.003 0,0" /></g><g
           transform="translate(362.7464,323.9403)"
           id="g226"><path
             id="path228"
             style="fill:#27314a;fill-opacity:1;fill-rule:nonzero;stroke:none"
             d="m 0,0 c -0.711,-0.869 -1.022,-2.04 -1.371,-3.089 -0.397,-1.192 -0.707,-2.415 -0.969,-3.644 -0.245,-1.15 -0.44,-2.309 -0.571,-3.477 -0.119,-1.057 -0.455,-2.472 -0.015,-3.483 0.039,-0.088 0.179,-0.078 0.221,0 0.234,0.442 0.262,0.943 0.303,1.434 0.051,0.609 0.107,1.216 0.181,1.822 0.149,1.215 0.343,2.428 0.591,3.627 0.238,1.158 0.539,2.3 0.859,3.438 0.306,1.088 0.814,2.185 0.896,3.32 C 0.13,0.009 0.04,0.049 0,0" /></g><g
           transform="translate(388.6602,330.7914)"
           id="g230"><path
             id="path232"
             style="fill:#27314a;fill-opacity:1;fill-rule:nonzero;stroke:none"
             d="M 0,0 C 1.05,1.063 1.877,2.316 2.453,3.693 2.739,4.375 2.991,5.088 3.092,5.823 3.116,5.993 3.146,6.172 3.176,6.355 2.999,6.39 2.819,6.423 2.639,6.456 2.603,6.267 2.561,6.079 2.498,5.894 2.269,5.218 2.066,4.541 1.763,3.892 1.176,2.633 0.376,1.464 -0.611,0.485 -1.597,-0.492 -2.769,-1.293 -4.032,-1.867 -4.655,-2.15 -5.301,-2.359 -5.96,-2.539 -6.302,-2.633 -6.646,-2.72 -6.996,-2.786 c -0.156,-0.03 -0.299,-0.046 -0.43,-0.088 -0.139,0.01 -0.285,-0.053 -0.343,-0.221 -1.101,-3.151 -2.409,-6.193 -4.02,-9.113 -0.593,1.494 -1.023,3.035 -1.441,4.59 -0.236,0.875 -0.449,1.755 -0.652,2.638 -0.186,0.81 -0.29,1.769 -0.661,2.515 -0.008,0.015 -0.022,0.016 -0.03,0.028 0.011,0.052 0.011,0.109 -0.011,0.175 -0.126,0.378 -0.834,0.453 -1.162,0.564 -1.806,0.611 -3.474,1.616 -4.847,2.94 -1.298,1.252 -2.369,2.799 -3.162,4.441 -0.103,-0.033 -0.206,-0.066 -0.312,-0.102 0.947,-3.248 3.444,-5.914 6.475,-7.411 0.402,-0.199 0.815,-0.373 1.238,-0.524 0.374,-0.133 0.818,-0.315 1.229,-0.342 -0.003,-0.423 0.117,-0.851 0.195,-1.265 0.091,-0.478 0.188,-0.953 0.293,-1.428 0.195,-0.885 0.396,-1.769 0.631,-2.644 0.476,-1.772 1.126,-3.508 1.866,-5.186 0.11,-0.249 0.491,-0.213 0.612,0 1.765,3.105 3.276,6.401 4.346,9.814 0.468,-0.022 1.049,0.141 1.402,0.214 0.725,0.15 1.436,0.404 2.114,0.698 C -2.298,-1.901 -1.048,-1.062 0,0" /></g><g
           transform="translate(392.8665,318.7788)"
           id="g234"><path
             id="path236"
             style="fill:#27314a;fill-opacity:1;fill-rule:nonzero;stroke:none"
             d="M 0,0 C -0.013,0.035 -0.073,0.056 -0.092,0.012 -0.551,-1.029 -0.469,-2.35 -0.57,-3.47 c -0.122,-1.357 -0.297,-2.707 -0.497,-4.054 -0.387,-2.607 -1.05,-5.144 -1.558,-7.726 -0.063,-0.32 0.372,-0.437 0.485,-0.134 0.924,2.485 1.397,5.171 1.791,7.785 0.188,1.251 0.321,2.511 0.422,3.772 0.051,0.635 0.089,1.268 0.101,1.905 C 0.186,-1.257 0.238,-0.631 0,0" /></g><g
           transform="translate(385.1256,295.9277)"
           id="g238"><path
             id="path240"
             style="fill:#27314a;fill-opacity:1;fill-rule:nonzero;stroke:none"
             d="m 0,0 c -0.761,-0.259 -1.428,-0.697 -2.134,-1.077 -0.793,-0.425 -1.609,-0.807 -2.449,-1.129 -1.628,-0.625 -3.33,-1.068 -5.074,-1.197 -3.257,-0.243 -6.726,0.604 -9.366,2.564 -0.032,0.024 -0.071,-0.028 -0.042,-0.055 2.55,-2.307 5.904,-3.275 9.308,-3.09 1.789,0.097 3.57,0.491 5.243,1.13 0.824,0.315 1.629,0.68 2.41,1.09 0.804,0.421 1.626,0.855 2.236,1.538 C 0.216,-0.133 0.136,0.047 0,0" /></g><g
           transform="translate(386.1843,298.2162)"
           id="g242"><path
             id="path244"
             style="fill:#27314a;fill-opacity:1;fill-rule:nonzero;stroke:none"
             d="m 0,0 c -0.615,-0.422 -1.22,-0.853 -1.874,-1.215 -0.366,-0.202 -0.747,-0.37 -1.118,-0.562 -0.346,-0.179 -0.763,-0.306 -1.055,-0.571 -0.017,-0.015 -0.002,-0.037 0.016,-0.039 0.351,-0.047 0.718,0.087 1.051,0.184 0.345,0.101 0.675,0.241 1.003,0.388 0.676,0.304 1.348,0.653 1.951,1.087 0.216,0.155 0.729,0.435 0.699,0.749 C 0.638,0.397 0.153,0.105 0,0" /></g><g
           transform="translate(379.3505,249.5784)"
           id="g246"><path
             id="path248"
             style="fill:#27314a;fill-opacity:1;fill-rule:nonzero;stroke:none"
             d="m 0,0 c -0.009,0.556 -0.009,1.113 -0.009,1.669 0,0.501 0.131,1.17 -0.113,1.624 -0.11,0.203 -0.392,0.177 -0.508,0 C -0.782,3.06 -0.786,2.774 -0.799,2.503 -0.815,2.204 -0.826,1.904 -0.836,1.605 -0.854,1.048 -0.854,0.492 -0.846,-0.064 c 0.016,-1.14 0.017,-2.3 0.306,-3.409 0.085,-0.327 0.524,-0.226 0.554,0.075 C 0.129,-2.27 0.017,-1.132 0,0" /></g><g
           transform="translate(373.5843,231.7489)"
           id="g250"><path
             id="path252"
             style="fill:#27314a;fill-opacity:1;fill-rule:nonzero;stroke:none"
             d="m 0,0 c 0.47,2.302 0.977,4.596 1.532,6.879 0.571,2.349 1.291,4.699 1.693,7.083 0.014,0.082 -0.109,0.154 -0.149,0.063 C 2.263,12.114 1.768,10.061 1.224,8.059 0.661,5.984 0.171,3.882 -0.282,1.78 c -0.909,-4.208 -1.654,-8.454 -2.231,-12.72 -1.142,-8.459 -1.705,-17.066 -1.503,-25.602 0.109,-4.626 0.371,-9.282 1.024,-13.867 -4.495,0.012 -8.991,0.025 -13.487,0.017 -0.65,-10e-4 -1.301,0.003 -1.951,0.005 0.038,-0.29 0.074,-0.569 0.11,-0.836 5.146,-0.01 10.291,0.005 15.437,0.021 0.983,0.003 1.967,0.005 2.95,0.007 -0.02,0.253 -0.041,0.51 -0.062,0.782 -0.764,0.002 -1.529,0 -2.294,0.003 -0.365,4.073 -0.74,8.137 -0.891,12.226 -0.157,4.254 -0.183,8.53 -0.014,12.784 C -2.856,-16.878 -1.707,-8.352 0,0" /></g><g
           transform="translate(407.7874,181.3806)"
           id="g254"><path
             id="path256"
             style="fill:#27314a;fill-opacity:1;fill-rule:nonzero;stroke:none"
             d="m 0,0 c -1.064,-0.003 -2.129,-0.005 -3.193,-0.008 0.042,0.052 0.072,0.118 0.068,0.207 -0.229,5.645 -0.518,11.284 -0.559,16.935 -0.02,2.781 -10e-4,5.564 0.099,8.343 0.101,2.806 0.373,5.602 0.449,8.408 0.15,5.52 -0.883,10.961 -1.129,16.461 -0.123,2.747 0.005,5.495 0.02,8.242 0.015,2.739 -0.079,5.48 -0.295,8.211 -0.477,6.042 -1.403,12.181 -3.272,17.958 -0.065,0.199 -0.36,0.118 -0.314,-0.086 1.211,-5.368 2.329,-10.724 2.843,-16.211 0.252,-2.686 0.396,-5.384 0.414,-8.082 0.018,-2.74 -0.127,-5.478 -0.093,-8.218 0.068,-5.508 1.155,-10.945 1.195,-16.453 0.02,-2.76 -0.228,-5.514 -0.384,-8.268 -0.157,-2.777 -0.258,-5.559 -0.265,-8.341 -0.016,-6.3 0.248,-12.61 0.618,-18.899 0.005,-0.09 0.042,-0.156 0.091,-0.209 -3.459,-0.01 -6.918,-0.021 -10.376,-0.028 -1.337,-0.002 -2.674,-0.005 -4.011,-0.008 0.07,-0.275 0.137,-0.538 0.201,-0.791 4.976,-0.009 9.951,-0.019 14.927,-0.028 0.999,-0.002 1.999,-0.005 2.998,-0.008 C 0.022,-0.592 0.011,-0.301 0,0" /></g><g
           transform="translate(372.3769,352.8604)"
           id="g258"><path
             id="path260"
             style="fill:#27314a;fill-opacity:1;fill-rule:nonzero;stroke:none"
             d="M 0,0 C -0.056,0.711 -0.351,1.399 -0.895,1.679 -1.054,1.76 -1.221,1.799 -1.398,1.793 -1.518,1.815 -1.635,1.806 -1.75,1.767 -1.926,1.747 -2.087,1.684 -2.232,1.58 -2.316,1.507 -2.401,1.434 -2.485,1.362 -2.637,1.191 -2.737,0.996 -2.784,0.776 c -0.219,-1.019 -0.072,-3.09 1.444,-2.913 0.346,0.041 0.698,0.177 0.922,0.448 C -0.092,-1.292 0.05,-0.637 0,0" /></g><g
           transform="translate(382.1388,352.6122)"
           id="g262"><path
             id="path264"
             style="fill:#27314a;fill-opacity:1;fill-rule:nonzero;stroke:none"
             d="M 0,0 C -0.056,0.711 -0.351,1.399 -0.895,1.679 -1.054,1.76 -1.221,1.799 -1.398,1.793 -1.518,1.815 -1.635,1.806 -1.75,1.767 -1.926,1.747 -2.087,1.684 -2.232,1.58 -2.316,1.507 -2.401,1.434 -2.485,1.362 -2.637,1.191 -2.737,0.996 -2.784,0.776 c -0.219,-1.019 -0.072,-3.09 1.444,-2.913 0.346,0.041 0.698,0.177 0.922,0.448 C -0.092,-1.292 0.05,-0.637 0,0" /></g><g
           transform="translate(375.8856,347.4289)"
           id="g266"><path
             id="path268"
             style="fill:#cf4d4f;fill-opacity:1;fill-rule:nonzero;stroke:none"
             d="m 0,0 c -0.14,0.134 -0.276,0.256 -0.436,0.367 -0.146,0.102 -0.302,0.185 -0.433,0.306 -0.262,0.242 -0.419,0.57 -0.157,0.87 0.306,0.35 0.542,0.721 0.698,1.161 0.135,0.379 0.296,0.955 0.096,1.332 -0.086,0.163 -0.326,0.15 -0.415,0 C -0.772,3.826 -0.78,3.549 -0.847,3.315 -0.913,3.087 -1.007,2.872 -1.129,2.668 -1.249,2.465 -1.387,2.283 -1.547,2.111 -1.746,1.899 -1.913,1.682 -1.944,1.385 -1.992,0.913 -1.744,0.451 -1.391,0.151 -1.218,0.004 -1.025,-0.13 -0.817,-0.224 -0.598,-0.322 -0.387,-0.35 -0.15,-0.363 0.035,-0.373 0.129,-0.124 0,0" /></g><g
           transform="translate(380.5299,354.0184)"
           id="g270"><path
             id="path272"
             style="fill:#ffffff;fill-opacity:1;fill-rule:nonzero;stroke:none"
             d="M 0,0 C -0.033,0.116 -0.091,0.216 -0.176,0.301 L -0.313,0.408 C -0.42,0.469 -0.535,0.5 -0.658,0.501 -0.752,0.504 -0.839,0.485 -0.921,0.442 -1.005,0.414 -1.078,0.367 -1.14,0.301 -1.207,0.239 -1.254,0.166 -1.281,0.081 -1.324,0 -1.343,-0.087 -1.34,-0.181 c 0.008,-0.061 0.016,-0.121 0.024,-0.182 0.033,-0.115 0.091,-0.216 0.176,-0.301 l 0.138,-0.106 c 0.106,-0.062 0.221,-0.093 0.344,-0.093 0.094,-0.004 0.182,0.015 0.263,0.058 0.085,0.028 0.158,0.075 0.219,0.141 0.067,0.062 0.114,0.135 0.142,0.22 0.042,0.081 0.062,0.169 0.058,0.263 C 0.016,-0.121 0.008,-0.061 0,0" /></g><g
           transform="translate(370.1102,349.8454)"
           id="g274"><path
             id="path276"
             style="fill:#e45f64;fill-opacity:1;fill-rule:nonzero;stroke:none"
             d="m 0,0 c 0,-0.731 -0.908,-1.324 -2.027,-1.324 -1.119,0 -2.027,0.593 -2.027,1.324 0,0.731 0.908,1.324 2.027,1.324 C -0.908,1.324 0,0.731 0,0" /></g><g
           transform="translate(385.9939,349.5558)"
           id="g278"><path
             id="path280"
             style="fill:#e45f64;fill-opacity:1;fill-rule:nonzero;stroke:none"
             d="m 0,0 c 0,-0.731 -0.907,-1.324 -2.027,-1.324 -1.119,0 -2.027,0.593 -2.027,1.324 0,0.731 0.908,1.324 2.027,1.324 C -0.907,1.324 0,0.731 0,0" /></g><g
           transform="translate(382.5539,355.2114)"
           id="g282"><path
             id="path284"
             style="fill:#e45f64;fill-opacity:1;fill-rule:nonzero;stroke:none"
             d="M 0,0 C -0.071,0.071 -0.194,0.113 -0.292,0.077 -0.315,0.069 -0.337,0.06 -0.36,0.05 -0.387,0.043 -0.41,0.029 -0.43,0.01 -0.443,0 -0.456,-0.01 -0.469,-0.021 -0.474,-0.025 -0.478,-0.03 -0.482,-0.034 -0.501,-0.055 -0.52,-0.075 -0.54,-0.095 l -0.115,-0.122 c -0.034,-0.036 -0.065,-0.075 -0.086,-0.12 -0.011,-0.025 -0.023,-0.049 -0.034,-0.074 -0.006,-0.012 -0.012,-0.024 -0.018,-0.037 -0.003,-0.006 -0.006,-0.013 -0.009,-0.02 -0.006,-0.011 -0.01,-0.023 -0.015,-0.034 -0.011,-0.019 -0.017,-0.04 -0.017,-0.063 -0.007,-0.056 0.003,-0.113 0.031,-0.163 0.018,-0.031 0.046,-0.065 0.077,-0.081 0.012,-0.005 0.024,-0.01 0.037,-0.016 0.063,-0.026 0.132,-0.027 0.195,0 0.034,0.014 0.066,0.03 0.099,0.046 0.022,0.012 0.045,0.023 0.068,0.034 0.046,0.023 0.085,0.056 0.122,0.092 0.037,0.037 0.075,0.074 0.112,0.111 0.02,0.02 0.04,0.039 0.059,0.059 0.005,0.004 0.009,0.009 0.014,0.013 0.016,0.021 0.033,0.043 0.049,0.064 l 0.006,0.008 c 0.019,0.032 0.03,0.07 0.042,0.106 C 0.111,-0.192 0.073,-0.073 0,0" /></g><g
           transform="translate(383.0602,354.0319)"
           id="g286"><path
             id="path288"
             style="fill:#e45f64;fill-opacity:1;fill-rule:nonzero;stroke:none"
             d="m 0,0 c -0.006,0.015 -0.013,0.03 -0.019,0.045 -0.012,0.022 -0.028,0.04 -0.049,0.053 -0.011,0.012 -0.025,0.02 -0.041,0.024 -0.023,0.012 -0.047,0.017 -0.073,0.017 L -0.273,0.15 C -0.288,0.152 -0.303,0.154 -0.318,0.156 -0.35,0.16 -0.382,0.154 -0.414,0.148 -0.442,0.143 -0.472,0.139 -0.5,0.131 -0.539,0.12 -0.575,0.096 -0.611,0.077 c -0.095,-0.053 -0.095,-0.201 0,-0.254 0.035,-0.019 0.069,-0.04 0.107,-0.053 0.028,-0.01 0.06,-0.012 0.09,-0.018 0.031,-0.006 0.06,-0.012 0.091,-0.009 0.015,0.002 0.031,0.004 0.046,0.006 l 0.095,0.012 c 0.017,0.003 0.034,0.005 0.05,0.007 0.025,0.006 0.046,0.017 0.064,0.034 0.031,0.024 0.06,0.059 0.068,0.098 0.004,0.016 0.008,0.035 0.008,0.05 C 0.007,-0.033 0.004,-0.016 0,0" /></g><g
           transform="translate(370.4371,354.2459)"
           id="g290"><path
             id="path292"
             style="fill:#ffffff;fill-opacity:1;fill-rule:nonzero;stroke:none"
             d="M 0,0 C -0.033,0.115 -0.091,0.216 -0.176,0.301 L -0.314,0.408 C -0.42,0.469 -0.535,0.5 -0.658,0.501 -0.752,0.504 -0.839,0.485 -0.921,0.442 -1.005,0.414 -1.078,0.367 -1.14,0.301 -1.207,0.239 -1.254,0.166 -1.281,0.081 -1.324,0 -1.344,-0.088 -1.34,-0.181 c 0.008,-0.061 0.016,-0.121 0.024,-0.182 0.033,-0.115 0.091,-0.216 0.176,-0.301 l 0.138,-0.106 c 0.106,-0.062 0.221,-0.093 0.344,-0.094 0.094,-0.003 0.182,0.016 0.263,0.059 0.084,0.028 0.158,0.075 0.219,0.141 0.067,0.062 0.114,0.135 0.142,0.22 0.042,0.081 0.062,0.169 0.058,0.263 C 0.016,-0.121 0.008,-0.061 0,0" /></g><g
           transform="translate(368.9181,355.1566)"
           id="g294"><path
             id="path296"
             style="fill:#e45f64;fill-opacity:1;fill-rule:nonzero;stroke:none"
             d="M 0,0 C -0.009,0.018 -0.021,0.035 -0.036,0.048 -0.063,0.075 -0.095,0.092 -0.13,0.103 L -0.1,0.09 C -0.128,0.102 -0.153,0.119 -0.178,0.136 -0.184,0.142 -0.191,0.148 -0.197,0.154 -0.216,0.173 -0.236,0.193 -0.26,0.206 -0.269,0.21 -0.277,0.214 -0.285,0.219 -0.314,0.236 -0.337,0.258 -0.371,0.266 -0.395,0.271 -0.419,0.27 -0.443,0.273 c 0.004,0 0.007,-0.001 0.011,-0.001 C -0.47,0.277 -0.505,0.266 -0.533,0.239 -0.536,0.236 -0.539,0.233 -0.542,0.229 -0.553,0.216 -0.564,0.201 -0.575,0.187 -0.586,0.171 -0.592,0.16 -0.597,0.137 -0.601,0.119 -0.605,0.097 -0.603,0.079 -0.6,0.044 -0.595,0.007 -0.585,-0.028 c 0.001,-0.004 0.002,-0.009 0.004,-0.013 0.012,-0.04 0.03,-0.071 0.058,-0.102 0.007,-0.009 0.015,-0.017 0.023,-0.024 0.042,-0.042 0.092,-0.08 0.145,-0.108 0.009,-0.005 0.018,-0.01 0.028,-0.014 0.042,-0.019 0.087,-0.042 0.135,-0.039 0.06,0.002 0.12,0.023 0.161,0.069 0.034,0.037 0.066,0.087 0.061,0.14 C 0.026,-0.075 0.022,-0.039 0,0" /></g><g
           transform="translate(368.4697,354.1037)"
           id="g298"><path
             id="path300"
             style="fill:#e45f64;fill-opacity:1;fill-rule:nonzero;stroke:none"
             d="M 0,0 C -0.031,0.02 -0.064,0.041 -0.101,0.049 -0.139,0.058 -0.18,0.061 -0.22,0.065 -0.266,0.07 -0.312,0.072 -0.358,0.073 -0.484,0.074 -0.618,0.064 -0.73,0 c -0.084,-0.047 -0.135,-0.162 -0.105,-0.256 0.032,-0.099 0.116,-0.161 0.219,-0.166 0.02,-0.001 0.04,0.002 0.06,0.004 0.04,0.003 0.08,0.006 0.12,0.014 0.03,0.007 0.061,0.012 0.092,0.016 0.038,0.005 0.076,0.009 0.114,0.01 0.024,0.001 0.048,0 0.072,0.001 0.041,0.001 0.074,0.012 0.112,0.025 0.074,0.026 0.127,0.08 0.138,0.16 C 0.103,-0.113 0.066,-0.043 0,0" /></g><g
           transform="translate(370.9695,358.4242)"
           id="g302"><path
             id="path304"
             style="fill:#6d263b;fill-opacity:1;fill-rule:nonzero;stroke:none"
             d="M 0,0 C 0.084,0.105 0.144,0.202 0.163,0.34 0.179,0.464 0.165,0.611 0.092,0.718 0.045,0.788 -0.007,0.866 -0.064,0.924 -0.184,1.046 -0.323,1.1 -0.48,1.158 -0.692,1.235 -0.95,1.195 -1.164,1.155 -1.456,1.101 -1.74,0.988 -2,0.845 -2.247,0.708 -2.507,0.531 -2.693,0.318 c -0.24,-0.276 -0.502,-0.67 -0.498,-1.045 0.006,-0.528 0.569,-0.829 1.023,-0.587 0.204,0.11 0.35,0.315 0.532,0.457 -0.053,-0.04 -0.106,-0.081 -0.159,-0.122 0.083,0.063 0.163,0.128 0.244,0.192 0.142,0.107 0.297,0.19 0.458,0.265 0.133,0.05 0.267,0.099 0.408,0.129 0.141,0.03 0.275,0.077 0.402,0.147 0.104,0.058 0.196,0.131 0.268,0.225 0,-10e-4 0.006,0.008 0.007,0.01 C -0.016,-0.02 -0.018,-0.022 0,0" /></g><g
           transform="translate(370.9619,358.4133)"
           id="g306"><path
             id="path308"
             style="fill:#6d263b;fill-opacity:1;fill-rule:nonzero;stroke:none"
             d="M 0,0 C 0.021,0.024 0.091,0.11 0.065,0.085 0.047,0.067 0.009,0.014 0,0" /></g><g
           transform="translate(382.5122,357.4464)"
           id="g310"><path
             id="path312"
             style="fill:#6d263b;fill-opacity:1;fill-rule:nonzero;stroke:none"
             d="M 0,0 C 0,0 0,0 0,0 -0.045,-0.019 -0.056,-0.024 0,0" /></g><g
           transform="translate(379.6614,358.5697)"
           id="g314"><path
             id="path316"
             style="fill:#6d263b;fill-opacity:1;fill-rule:nonzero;stroke:none"
             d="M 0,0 C -0.003,0.002 -0.004,0.004 -0.006,0.006 -0.017,0.014 -0.026,0.019 -0.037,0.028 -0.035,0.027 -0.017,0.013 0,0" /></g><g
           transform="translate(382.6984,358.5691)"
           id="g318"><path
             id="path320"
             style="fill:#6d263b;fill-opacity:1;fill-rule:nonzero;stroke:none"
             d="M 0,0 C -0.296,0.487 -0.825,0.799 -1.357,0.964 -1.619,1.046 -1.898,1.095 -2.173,1.093 -2.521,1.091 -2.878,1.054 -3.134,0.795 -3.379,0.547 -3.294,0.201 -3.043,0.007 c 0.074,-0.056 0.135,-0.096 0.227,-0.129 0.046,-0.016 0.092,-0.028 0.14,-0.038 0.102,-0.023 0.204,-0.044 0.305,-0.076 0.09,-0.028 0.178,-0.062 0.267,-0.094 0.047,-0.016 0.094,-0.037 0.141,-0.053 -0.221,0.074 -0.048,0.018 0.013,-0.012 0.183,-0.093 0.362,-0.205 0.531,-0.322 0.007,-0.004 0.013,-0.011 0.02,-0.017 -0.01,0.01 -0.012,0.012 -0.027,0.026 0.074,-0.071 0.162,-0.135 0.247,-0.191 0.081,-0.053 0.159,-0.113 0.248,-0.154 0.083,-0.039 0.167,-0.085 0.255,-0.113 0.059,-0.018 0.138,-0.032 0.2,-0.032 0.11,0 0.191,0.039 0.289,0.075 0.014,0.006 0.021,0.009 0.043,0.018 l -0.041,-0.017 c -0.001,-10e-4 0,0 -0.001,-10e-4 0.011,0.005 0.021,0.008 0.033,0.013 0.006,0.002 0.01,0.006 0.015,0.008 0.003,0.001 0.002,0.001 0.005,0.002 0.031,0.02 0.066,0.047 0.093,0.073 C 0.247,-0.759 0.188,-0.309 0,0" /></g><g
           transform="translate(381.2997,357.8354)"
           id="g322"><path
             id="path324"
             style="fill:#6d263b;fill-opacity:1;fill-rule:nonzero;stroke:none"
             d="M 0,0 C 0.102,-0.097 0.054,-0.043 0,0" /></g><g
           transform="translate(379.6614,358.5697)"
           id="g326"><path
             id="path328"
             style="fill:#6d263b;fill-opacity:1;fill-rule:nonzero;stroke:none"
             d="M 0,0 C 0.002,-0.002 0.004,-0.005 0.006,-0.006 0.052,-0.04 0.027,-0.021 0,0" /></g><g
           transform="translate(376.8185,345.6683)"
           id="g330"><path
             id="path332"
             style="fill:#cf4d4f;fill-opacity:1;fill-rule:nonzero;stroke:none"
             d="m 0,0 c -0.387,0.231 -0.908,0.315 -1.351,0.279 -0.538,-0.045 -1.041,-0.22 -1.446,-0.585 -0.275,-0.246 0.077,-0.676 0.387,-0.501 0.337,0.191 0.713,0.31 1.1,0.312 0.104,0.001 0.206,-0.007 0.308,-0.017 0.009,-0.001 0.093,-0.01 0.049,-0.005 -0.038,0.005 0.028,-0.004 0.029,-0.004 0.061,-0.011 0.121,-0.022 0.181,-0.037 0.241,-0.059 0.4,-0.146 0.592,-0.214 0.121,-0.043 0.267,-0.094 0.391,-0.039 0.018,0.008 0.067,0.046 0.085,0.059 0.033,0.031 0.057,0.052 0.076,0.097 C 0.52,-0.379 0.211,-0.126 0,0" /></g><g
           transform="translate(377.1439,344.9166)"
           id="g334"><path
             id="path336"
             style="fill:#cf4d4f;fill-opacity:1;fill-rule:nonzero;stroke:none"
             d="M 0,0 C -0.005,-0.005 -0.006,-0.01 -0.012,-0.015 0.014,0.009 0.011,0.007 0,0" /></g><g
           transform="translate(307.9055,341.5361)"
           id="g338"><path
             id="path340"
             style="fill:#ffffff;fill-opacity:1;fill-rule:nonzero;stroke:none"
             d="M 0,0 C -0.202,1.505 -1.64,3.103 -3.306,2.919 -4.622,2.773 -5.708,2.421 -6.877,1.785 -7.448,1.474 -8.004,1.135 -8.546,0.776 c -1.345,-0.892 -2.642,-1.901 -3.791,-3.037 -1.114,-1.102 -2.159,-2.343 -2.853,-3.752 -0.393,-0.798 -0.721,-1.627 -0.953,-2.486 -0.197,-0.726 -0.249,-1.437 -0.051,-2.174 0.308,-1.145 1.365,-2.276 2.66,-2.176 0.884,0.068 1.621,0.383 2.263,0.995 0.364,0.347 0.604,0.774 0.877,1.187 0.306,0.465 0.643,0.914 0.981,1.358 0.336,0.424 0.673,0.846 1.002,1.276 -0.178,-0.231 -0.357,-0.462 -0.535,-0.693 0.891,1.139 1.923,2.147 3.048,3.052 0.91,0.675 1.878,1.306 2.892,1.814 0.195,0.064 0.387,0.135 0.595,0.166 0.746,0.115 1.669,0.9 2.011,1.547 0.36,0.68 0.503,1.381 0.4,2.147" /></g><g
           transform="translate(318.962,343.2467)"
           id="g342"><path
             id="path344"
             style="fill:#ffffff;fill-opacity:1;fill-rule:nonzero;stroke:none"
             d="M 0,0 C -0.001,0.263 -0.067,0.508 -0.199,0.735 -0.268,0.982 -0.393,1.196 -0.573,1.378 -0.644,1.512 -0.736,1.625 -0.852,1.715 -1.05,1.868 -1.248,2.021 -1.446,2.174 -1.485,2.202 -1.525,2.228 -1.565,2.254 -1.852,2.44 -2.176,2.569 -2.507,2.659 -2.716,2.715 -2.928,2.762 -3.142,2.8 -3.578,2.877 -4.019,2.935 -4.46,2.979 -4.676,3 -4.892,3.019 -5.107,2.995 -5.533,2.948 -5.965,2.893 -6.385,2.801 -6.488,2.778 -6.591,2.754 -6.693,2.726 -6.856,2.683 -6.983,2.623 -7.149,2.553 -7.471,2.417 -7.812,2.227 -8.047,1.958 -8.489,1.453 -8.847,0.8 -8.816,0.101 c 0.029,-0.65 0.236,-1.434 0.769,-1.858 0.382,-0.303 0.718,-0.603 1.218,-0.717 0.081,-0.018 0.165,-0.027 0.249,-0.039 0.215,-0.034 0.429,-0.071 0.64,-0.125 0.243,-0.062 0.491,-0.092 0.736,-0.144 0.247,-0.052 0.491,-0.117 0.732,-0.195 0.114,-0.037 0.228,-0.078 0.341,-0.121 0.124,-0.047 0.258,-0.066 0.39,-0.088 -0.013,10e-4 -0.026,0.003 -0.039,0.005 0.018,-0.003 0.037,-0.007 0.055,-0.009 0.112,-0.019 0.221,-0.043 0.334,-0.054 0.157,-0.026 0.313,-0.048 0.463,-0.052 0.153,-0.013 0.304,0.003 0.454,0.048 0.263,0.001 0.508,0.067 0.736,0.199 0.246,0.069 0.46,0.194 0.642,0.374 0.113,0.067 0.214,0.146 0.305,0.238 0.016,0.016 0.033,0.031 0.048,0.047 0.498,0.521 0.787,1.226 0.795,1.947 C 0.054,-0.289 0.025,-0.185 0,0" /></g><g
           transform="translate(327.6366,302.944)"
           id="g346"><path
             id="path348"
             style="fill:#ffffff;fill-opacity:1;fill-rule:nonzero;stroke:none"
             d="M 0,0 C -0.098,0.414 -0.288,0.774 -0.569,1.081 -1.15,1.834 -2.078,2.39 -3.067,2.335 -3.166,2.329 -3.265,2.326 -3.365,2.323 -4.08,2.294 -4.67,2.118 -5.288,1.787 -5.521,1.662 -5.73,1.532 -5.946,1.381 -6.145,1.242 -6.348,1.111 -6.557,0.988 -6.812,0.837 -7.047,0.659 -7.279,0.476 -8.107,-0.123 -9.123,-0.55 -9.606,-1.498 c -0.232,-0.455 -0.333,-0.909 -0.265,-1.42 0.07,-0.516 0.278,-0.877 0.613,-1.279 0.704,-0.844 1.732,-0.949 2.74,-1.048 0.446,-0.044 0.897,-0.059 1.345,-0.034 0.748,0.043 1.421,0.241 2.106,0.518 0.538,0.219 0.923,0.374 1.355,0.7 0.531,0.402 1.015,0.747 1.296,1.379 0.146,0.327 0.283,0.658 0.416,0.991 0.151,0.564 0.151,1.127 0,1.691" /></g><g
           transform="translate(376.763,57.0715)"
           id="g350"><path
             id="path352"
             style="fill:#80afd8;fill-opacity:1;fill-rule:nonzero;stroke:none"
             d="m 0,0 h -10.768 l -22.253,90.687 h 10.768 z" /></g><g
           transform="translate(442.5652,57.0715)"
           id="g354"><path
             id="path356"
             style="fill:#80afd8;fill-opacity:1;fill-rule:nonzero;stroke:none"
             d="m 0,0 h -10.768 l -22.253,90.687 h 10.768 z" /></g><g
           transform="translate(373.772,57.0715)"
           id="g358"><path
             id="path360"
             style="fill:#b1d0e8;fill-opacity:1;fill-rule:nonzero;stroke:none"
             d="m 0,0 h -10.768 l -22.253,90.687 h 10.768 z" /></g><g
           transform="translate(316.3446,57.0715)"
           id="g362"><path
             id="path364"
             style="fill:#80afd8;fill-opacity:1;fill-rule:nonzero;stroke:none"
             d="M 0,0 H 10.768 L 33.021,90.687 H 22.253 Z" /></g><g
           transform="translate(439.8135,57.0715)"
           id="g366"><path
             id="path368"
             style="fill:#b1d0e8;fill-opacity:1;fill-rule:nonzero;stroke:none"
             d="m 0,0 h -10.768 l -22.253,90.687 h 10.768 z" /></g><path
           id="path370"
           style="fill:#b1d0e8;fill-opacity:1;fill-rule:nonzero;stroke:none"
           d="m 355.108,115.217 h 63.649 v 9.332 h -63.649 z" /><path
           id="path372"
           style="fill:#b1d0e8;fill-opacity:1;fill-rule:nonzero;stroke:none"
           d="m 365.158,81.957 h 63.649 v 9.332 h -63.649 z" /><g
           transform="translate(312.1971,57.0715)"
           id="g374"><path
             id="path376"
             style="fill:#ffffff;fill-opacity:1;fill-rule:nonzero;stroke:none"
             d="M 0,0 H 10.768 L 33.021,90.687 H 22.253 Z" /></g><g
           transform="translate(382.2266,57.0715)"
           id="g378"><path
             id="path380"
             style="fill:#80afd8;fill-opacity:1;fill-rule:nonzero;stroke:none"
             d="M 0,0 H 10.768 L 33.021,90.687 H 22.253 Z" /></g><g
           transform="translate(378.2386,57.0715)"
           id="g382"><path
             id="path384"
             style="fill:#ffffff;fill-opacity:1;fill-rule:nonzero;stroke:none"
             d="M 0,0 H 10.768 L 33.021,90.687 H 22.253 Z" /></g><path
           id="path386"
           style="fill:#ffffff;fill-opacity:1;fill-rule:nonzero;stroke:none"
           d="m 396.903,115.217 h -63.649 v 9.332 h 63.649 z" /><path
           id="path388"
           style="fill:#ffffff;fill-opacity:1;fill-rule:nonzero;stroke:none"
           d="m 386.853,81.957 h -63.649 v 9.332 h 63.649 z" /><g
           transform="translate(419.3169,145.3661)"
           id="g390"><path
             id="path392"
             style="fill:#ffffff;fill-opacity:1;fill-rule:nonzero;stroke:none"
             d="m 0,0 h -87.421 c -2.113,0 -3.826,1.713 -3.826,3.827 V 3.99 c 0,2.113 1.713,3.826 3.826,3.826 H 0 c 2.113,0 3.827,-1.713 3.827,-3.826 V 3.827 C 3.827,1.713 2.113,0 0,0" /></g><g
           transform="translate(94.0793,226.8268)"
           id="g394"><path
             id="path396"
             style="fill:#ee7339;fill-opacity:1;fill-rule:nonzero;stroke:none"
             d="m 0,0 h 71.304 c 2.375,0 4.622,-0.933 6.112,-2.538 l 10.066,-10.845 c 0.994,-1.07 2.492,-1.692 4.075,-1.692 h 111.31 c 3.943,0 7.139,-2.773 7.139,-6.195 v -135.122 c 0,-7.38 -6.895,-13.363 -15.401,-13.363 H 3.517 c -5.956,0 -10.785,4.19 -10.785,9.358 V -6.307 C -7.268,-2.824 -4.014,0 0,0" /></g><g
           transform="translate(146.3557,307.5258)"
           id="g398"><path
             id="path400"
             style="fill:#ffffff;fill-opacity:1;fill-rule:nonzero;stroke:none"
             d="M 0,0 -29.999,-29.999 V -144.955 H 117.056 L 117.056,0 Z" /></g><g
           transform="translate(146.3557,277.5269)"
           id="g402"><path
             id="path404"
             style="fill:#b1d0e8;fill-opacity:1;fill-rule:nonzero;stroke:none"
             d="M 0,0 V 29.999 L -29.999,0 Z" /></g><g
           transform="translate(69.0644,192.9583)"
           id="g406"><path
             id="path408"
             style="fill:#ffad6c;fill-opacity:1;fill-rule:nonzero;stroke:none"
             d="m 0,0 h 197.577 c 4.657,0 8.653,-2.877 9.513,-6.848 l 25.777,-119.09 c 1.119,-5.169 -3.451,-9.949 -9.512,-9.949 H 25.777 c -4.656,0 -8.653,2.877 -9.512,6.849 L -9.513,-9.949 C -10.632,-4.78 -6.062,0 0,0" /></g><g
           transform="translate(195.8855,245.9637)"
           id="g410"><path
             id="path412"
             style="fill:#e45f64;fill-opacity:1;fill-rule:nonzero;stroke:none"
             d="m 0,0 c 3.759,3.81 7.511,7.628 11.265,11.446 2.211,2.248 2.41,6.302 0,8.514 -2.386,2.191 -6.154,2.399 -8.513,0 -3.809,-3.744 -7.616,-7.487 -11.416,-11.236 -3.762,3.762 -7.538,7.511 -11.359,11.216 -2.222,2.291 -6.41,2.398 -8.611,0 -2.26,-2.461 -2.37,-6.167 0,-8.611 3.695,-3.811 7.433,-7.577 11.186,-11.329 -3.751,-3.75 -7.487,-7.514 -11.181,-11.323 -2.291,-2.222 -2.398,-6.411 0,-8.612 2.462,-2.259 6.167,-2.37 8.611,0 3.819,3.704 7.594,7.451 11.354,11.211 3.798,-3.747 7.604,-7.488 11.41,-11.23 2.248,-2.211 6.302,-2.41 8.514,0 2.191,2.386 2.399,6.155 0,8.514 C 7.508,-7.624 3.757,-3.809 0,0" /></g><g
           transform="translate(61.7109,286.301)"
           id="g414"><path
             id="path416"
             style="fill:#d2b6aa;fill-opacity:1;fill-rule:nonzero;stroke:none"
             d="m 0,0 c -4.268,0 -7.729,3.46 -7.729,7.729 0,4.268 3.461,7.728 7.729,7.728 4.268,0 7.729,-3.46 7.729,-7.728 C 7.729,3.46 4.268,0 0,0 m 12.856,11.476 h -1.289 c -0.199,0.617 -0.448,1.212 -0.739,1.781 l 0.912,0.913 c 0.862,0.862 0.862,2.261 0,3.123 l -2.176,2.176 c -0.862,0.862 -2.261,0.862 -3.123,0 L 5.529,18.556 c -0.57,0.292 -1.165,0.54 -1.782,0.74 v 1.288 c 0,1.22 -0.989,2.209 -2.209,2.209 h -3.076 c -1.22,0 -2.209,-0.989 -2.209,-2.209 v -1.288 c -0.617,-0.2 -1.212,-0.448 -1.782,-0.74 l -0.912,0.913 c -0.862,0.862 -2.261,0.862 -3.123,0 l -2.176,-2.176 c -0.862,-0.862 -0.862,-2.261 0,-3.123 l 0.912,-0.913 c -0.291,-0.569 -0.54,-1.164 -0.739,-1.781 h -1.289 c -1.22,0 -2.208,-0.989 -2.208,-2.209 V 6.19 c 0,-1.219 0.988,-2.208 2.208,-2.208 h 1.289 C -11.368,3.365 -11.119,2.77 -10.828,2.2 L -11.74,1.288 c -0.862,-0.863 -0.862,-2.261 0,-3.124 l 2.176,-2.175 c 0.862,-0.863 2.261,-0.863 3.123,0 l 0.912,0.912 c 0.57,-0.292 1.165,-0.54 1.782,-0.74 v -1.288 c 0,-1.22 0.989,-2.209 2.209,-2.209 h 3.076 c 1.22,0 2.209,0.989 2.209,2.209 v 1.288 c 0.617,0.2 1.212,0.448 1.782,0.74 l 0.912,-0.912 c 0.862,-0.863 2.261,-0.863 3.123,0 l 2.176,2.175 c 0.862,0.863 0.862,2.261 0,3.124 L 10.828,2.2 c 0.291,0.57 0.54,1.165 0.739,1.782 h 1.289 c 1.22,0 2.208,0.989 2.208,2.208 v 3.077 c 0,1.22 -0.988,2.209 -2.208,2.209" /></g><g
           transform="translate(312.111,234.0838)"
           id="g418"><path
             id="path420"
             style="fill:#d2b6aa;fill-opacity:1;fill-rule:nonzero;stroke:none"
             d="m 0,0 c -4.268,0 -7.729,3.46 -7.729,7.729 0,4.268 3.461,7.728 7.729,7.728 4.268,0 7.729,-3.46 7.729,-7.728 C 7.729,3.46 4.268,0 0,0 m 12.856,11.476 h -1.288 c -0.2,0.617 -0.449,1.212 -0.74,1.781 l 0.912,0.913 c 0.862,0.862 0.862,2.26 0,3.123 l -2.176,2.176 c -0.862,0.862 -2.261,0.862 -3.123,0 L 5.529,18.556 c -0.57,0.292 -1.165,0.54 -1.782,0.74 v 1.288 c 0,1.22 -0.989,2.209 -2.209,2.209 h -3.076 c -1.22,0 -2.209,-0.989 -2.209,-2.209 v -1.288 c -0.617,-0.2 -1.212,-0.448 -1.782,-0.74 l -0.912,0.913 c -0.862,0.862 -2.261,0.862 -3.123,0 l -2.176,-2.176 c -0.862,-0.863 -0.862,-2.261 0,-3.123 l 0.912,-0.913 c -0.291,-0.569 -0.54,-1.164 -0.74,-1.781 h -1.288 c -1.22,0 -2.208,-0.989 -2.208,-2.209 V 6.19 c 0,-1.219 0.988,-2.208 2.208,-2.208 h 1.288 c 0.2,-0.617 0.449,-1.212 0.74,-1.782 L -11.74,1.288 c -0.862,-0.863 -0.862,-2.261 0,-3.124 l 2.176,-2.175 c 0.862,-0.863 2.261,-0.863 3.123,0 l 0.912,0.912 c 0.57,-0.292 1.165,-0.54 1.782,-0.74 v -1.288 c 0,-1.22 0.989,-2.209 2.209,-2.209 h 3.076 c 1.22,0 2.209,0.989 2.209,2.209 v 1.288 c 0.617,0.2 1.212,0.448 1.782,0.74 l 0.912,-0.912 c 0.862,-0.863 2.261,-0.863 3.123,0 l 2.176,2.175 c 0.862,0.863 0.862,2.261 0,3.124 L 10.828,2.2 c 0.291,0.57 0.54,1.165 0.74,1.782 h 1.288 c 1.22,0 2.208,0.989 2.208,2.208 v 3.077 c 0,1.22 -0.988,2.209 -2.208,2.209" /></g><g
           transform="translate(86.618,311.9195)"
           id="g422"><path
             id="path424"
             style="fill:#d2b6aa;fill-opacity:1;fill-rule:nonzero;stroke:none"
             d="m 0,0 c -5.624,2.13 -8.456,8.416 -6.326,14.04 2.13,5.624 8.416,8.456 14.04,6.326 C 13.338,18.235 16.17,11.95 14.04,6.326 11.91,0.702 5.624,-2.13 0,0 m 22.665,8.704 -1.698,0.643 c 0.045,0.913 0.015,1.821 -0.085,2.717 l 1.657,0.746 c 1.567,0.706 2.265,2.549 1.559,4.115 l -1.781,3.952 c -0.706,1.567 -2.548,2.265 -4.115,1.559 L 16.545,21.69 c -0.605,0.668 -1.265,1.292 -1.978,1.863 l 0.643,1.698 c 0.608,1.607 -0.201,3.403 -1.808,4.012 L 9.348,30.798 C 7.741,31.407 5.945,30.598 5.336,28.991 L 4.693,27.293 C 3.78,27.338 2.872,27.307 1.976,27.208 L 1.23,28.865 c -0.706,1.567 -2.549,2.265 -4.115,1.559 l -3.953,-1.781 c -1.566,-0.706 -2.264,-2.548 -1.558,-4.115 l 0.746,-1.657 c -0.668,-0.605 -1.292,-1.265 -1.864,-1.979 l -1.697,0.643 c -1.607,0.609 -3.403,-0.2 -4.012,-1.807 l -1.535,-4.054 c -0.609,-1.607 0.2,-3.404 1.807,-4.012 l 1.698,-0.643 c -0.045,-0.913 -0.015,-1.821 0.085,-2.717 L -14.825,7.556 C -16.392,6.85 -17.09,5.007 -16.384,3.44 l 1.781,-3.952 c 0.706,-1.567 2.548,-2.265 4.115,-1.559 l 1.657,0.747 c 0.605,-0.668 1.265,-1.292 1.979,-1.864 l -0.643,-1.697 c -0.609,-1.607 0.2,-3.404 1.807,-4.012 l 4.054,-1.536 c 1.607,-0.609 3.403,0.201 4.012,1.808 l 0.643,1.697 c 0.913,-0.044 1.821,-0.014 2.717,0.086 l 0.746,-1.657 c 0.706,-1.567 2.549,-2.265 4.116,-1.559 l 3.952,1.781 c 1.566,0.706 2.264,2.548 1.558,4.115 l -0.746,1.657 c 0.668,0.605 1.292,1.265 1.864,1.978 l 1.697,-0.643 c 1.607,-0.608 3.403,0.201 4.012,1.808 l 1.536,4.054 c 0.608,1.607 -0.201,3.403 -1.808,4.012" /></g><g
           transform="translate(128.0284,395.6749)"
           id="g426"><path
             id="path428"
             style="fill:#ffffff;fill-opacity:1;fill-rule:nonzero;stroke:none"
             d="M 0,0 -8.111,-17.201 9.303,-65.699 54.884,-49.332 32.924,11.823 Z" /></g><g
           transform="translate(132.5729,383.0189)"
           id="g430"><path
             id="path432"
             style="fill:#f9e9d8;fill-opacity:1;fill-rule:nonzero;stroke:none"
             d="M 0,0 -4.544,12.656 -12.656,-4.545 Z" /></g><g
           transform="translate(153.7648,370.3938)"
           id="g434"><path
             id="path436"
             style="fill:#e45f64;fill-opacity:1;fill-rule:nonzero;stroke:none"
             d="m 0,0 c 1.126,2.431 2.248,4.863 3.37,7.297 0.661,1.433 0.07,3.376 -1.44,4.01 -1.494,0.629 -3.305,0.09 -4.01,-1.44 -1.16,-2.407 -2.321,-4.814 -3.477,-7.223 -2.408,1.136 -4.821,2.263 -7.248,3.362 -1.433,0.703 -3.425,0.045 -4.056,-1.457 -0.648,-1.541 -0.073,-3.305 1.457,-4.056 2.385,-1.17 4.783,-2.312 7.185,-3.444 -1.132,-2.401 -2.256,-4.806 -3.351,-7.225 -0.704,-1.434 -0.046,-3.425 1.456,-4.057 1.542,-0.648 3.306,-0.073 4.057,1.457 1.172,2.391 2.316,4.794 3.451,7.201 2.423,-1.122 4.849,-2.241 7.275,-3.36 1.433,-0.661 3.376,-0.069 4.01,1.44 C 9.307,-6 8.768,-4.19 7.239,-3.484 4.826,-2.322 2.414,-1.159 0,0" /></g><g
           transform="translate(223.3393,428.057)"
           id="g438"><path
             id="path440"
             style="fill:#ffffff;fill-opacity:1;fill-rule:nonzero;stroke:none"
             d="M 0,0 -15.184,-6.199 -32.398,-47.167 6.105,-63.346 27.813,-11.687 Z" /></g><g
           transform="translate(218.8469,417.3659)"
           id="g442"><path
             id="path444"
             style="fill:#f9e9d8;fill-opacity:1;fill-rule:nonzero;stroke:none"
             d="M 0,0 4.492,10.691 -10.691,4.492 Z" /></g><g
           transform="translate(224.9497,396.9873)"
           id="g446"><path
             id="path448"
             style="fill:#e45f64;fill-opacity:1;fill-rule:nonzero;stroke:none"
             d="M 0,0 C 2.133,0.888 4.264,1.779 6.396,2.671 7.652,3.196 8.409,4.775 7.82,6.059 7.237,7.329 5.772,8.042 4.432,7.482 2.291,6.629 0.15,5.776 -1.989,4.92 c -0.868,2.126 -1.743,4.249 -2.644,6.362 -0.501,1.283 -2.15,2.026 -3.427,1.44 -1.311,-0.602 -1.974,-2.057 -1.44,-3.426 0.833,-2.135 1.691,-4.258 2.557,-6.379 -2.119,-0.865 -4.236,-1.738 -6.342,-2.636 -1.283,-0.501 -2.026,-2.15 -1.44,-3.426 0.602,-1.311 2.058,-1.975 3.426,-1.44 2.139,0.835 4.268,1.695 6.393,2.563 0.885,-2.127 1.773,-4.252 2.662,-6.377 0.525,-1.256 2.105,-2.013 3.388,-1.424 1.271,0.583 1.984,2.048 1.424,3.388 C 1.713,-4.289 0.858,-2.144 0,0" /></g></g></g><text
       id="text452"
       style="font-variant:normal;font-weight:bold;font-stretch:normal;font-size:36.70604706px;font-family:Quicksand;-inkscape-font-specification:Quicksand-Bold;writing-mode:lr-tb;fill:#ffffff;fill-opacity:1;fill-rule:nonzero;stroke:none"
       transform="matrix(0.97070652,0.24026831,0.24026831,-0.97070652,367.7041,393.6163)"><tspan
         id="tspan450"
         y="0"
         x="0">?</tspan></text>
<text
       id="text456"
       style="font-variant:normal;font-weight:bold;font-stretch:normal;font-size:32.37007523px;font-family:Quicksand;-inkscape-font-specification:Quicksand-Bold;writing-mode:lr-tb;fill:#ffffff;fill-opacity:1;fill-rule:nonzero;stroke:none"
       transform="matrix(0.75598216,0.65459222,0.65459222,-0.75598216,356.6141,380.8261)"><tspan
         id="tspan454"
         y="0"
         x="0">?</tspan></text>
<text
       id="text460"
       style="font-variant:normal;font-weight:bold;font-stretch:normal;font-size:32.37009811px;font-family:Quicksand;-inkscape-font-specification:Quicksand-Bold;writing-mode:lr-tb;fill:#ffffff;fill-opacity:1;fill-rule:nonzero;stroke:none"
       transform="matrix(0.90901177,-0.41677044,-0.41677044,-0.90901177,383.8566,395.2603)"><tspan
         id="tspan458"
         y="0"
         x="0">?</tspan></text>
</g></svg>